# Blender v2.75 (sub 0) OBJ File: 'сушд_дфьз.blend'
# www.blender.org
mtllib сушд_дфьз.mtl
o Cube
v 1.000000 -1.000000 -1.000000
v 1.000000 -1.000000 1.000000
v -1.000000 -1.000000 1.000000
v -1.000000 -1.000000 -1.000000
v 1.000000 -1.000000 0.000000
v 0.000000 -1.000000 -1.000000
v 0.000000 -1.000000 1.000000
v -1.000000 -1.000000 -0.000000
v 0.000000 -1.000000 -0.000000
v 1.000000 -1.000000 0.500000
v -0.500000 -1.000000 -1.000000
v -0.500000 -1.000000 1.000000
v -1.000000 -1.000000 -0.500000
v 1.000000 -1.000000 -0.500000
v 0.500000 -1.000000 -1.000000
v 1.253356 -0.844825 -1.253356
v 0.500000 -1.000000 1.000000
v 1.253356 -0.844825 1.253356
v -1.000000 -1.000000 0.500000
v -1.253357 -0.844825 1.253356
v -1.253356 -0.844825 -1.253357
v 0.000000 -0.844825 -1.253356
v -1.253356 -0.844825 -0.000000
v -0.000000 -0.844825 1.253356
v 1.253356 -0.844825 0.000000
v -0.500000 -1.000000 -0.000000
v 0.500000 -1.000000 -0.000000
v 0.000000 -1.000000 -0.500000
v 0.000000 -1.000000 0.500000
v 0.500000 -1.000000 0.500000
v 0.500000 -1.000000 -0.500000
v -0.500000 -1.000000 -0.500000
v 1.253356 -0.844825 -0.626678
v 1.253356 -0.844825 0.626678
v 0.626678 -0.844825 1.253356
v -0.626678 -0.844825 1.253356
v -1.253356 -0.844825 0.626678
v -1.253356 -0.844825 -0.626678
v 0.626678 -0.844825 -1.253356
v -0.626678 -0.844825 -1.253356
v -0.500000 -1.000000 0.500000
vt 0.309150 0.306654
vt 0.117674 0.304990
vt 0.121988 0.117048
vt 0.309971 0.115173
vt 0.998816 0.259201
vt 0.884699 0.309934
vt 0.881707 0.123209
vt 1.000000 0.000000
vt 0.996732 0.747168
vt 0.882326 0.695002
vt 0.884551 0.502273
vt 0.999900 0.502875
vt 0.693060 0.309425
vt 0.501217 0.307891
vt 0.502712 0.115448
vt 0.695037 0.117796
vt 0.690850 0.693338
vt 0.498783 0.692102
vt 0.500000 0.499996
vt 0.692105 0.501272
vt 0.306940 0.690567
vt 0.115302 0.690058
vt 0.115449 0.497719
vt 0.307895 0.498721
vt 0.497288 0.884544
vt 0.304963 0.882197
vt 0.118293 0.876783
vt 0.878012 0.882944
vt 0.690030 0.884820
vt 0.740707 0.999893
vt 0.496393 0.999892
vt 1.000000 1.000000
vt 0.252753 0.995646
vt 0.000000 1.000000
vt 0.001184 0.740792
vt 0.000100 0.497118
vt 0.003268 0.252825
vt 0.000000 0.000000
vt 0.259294 0.000100
vt 0.503607 0.000101
vt 0.747247 0.004347
vn 0.000000 -1.000000 -0.000000
vn 0.000000 -0.852800 -0.522300
vn 0.522300 -0.852800 0.000000
vn 0.000000 -0.852800 0.522300
vn -0.522300 -0.852800 -0.000000
usemtl Material
s off
f 41/1/1 12/2/1 3/3/1 19/4/1
f 40/5/2 11/6/2 4/7/2 21/8/2
f 39/9/2 15/10/2 6/11/2 22/12/2
f 32/13/1 26/14/1 8/15/1 13/16/1
f 31/17/1 27/18/1 9/19/1 28/20/1
f 30/21/1 17/22/1 7/23/1 29/24/1
f 27/18/1 30/21/1 29/24/1 9/19/1
f 5/25/1 10/26/1 30/21/1 27/18/1
f 10/26/1 2/27/1 17/22/1 30/21/1
f 15/10/1 31/17/1 28/20/1 6/11/1
f 1/28/1 14/29/1 31/17/1 15/10/1
f 14/29/1 5/25/1 27/18/1 31/17/1
f 11/6/1 32/13/1 13/16/1 4/7/1
f 6/11/1 28/20/1 32/13/1 11/6/1
f 28/20/1 9/19/1 26/14/1 32/13/1
f 14/29/3 33/30/3 25/31/3 5/25/3
f 1/28/3 16/32/3 33/30/3 14/29/3
f 10/26/3 34/33/3 18/34/3 2/27/3
f 5/25/3 25/31/3 34/33/3 10/26/3
f 17/22/4 35/35/4 24/36/4 7/23/4
f 2/27/4 18/34/4 35/35/4 17/22/4
f 12/2/4 36/37/4 20/38/4 3/3/4
f 7/23/4 24/36/4 36/37/4 12/2/4
f 19/4/5 37/39/5 23/40/5 8/15/5
f 3/3/5 20/38/5 37/39/5 19/4/5
f 13/16/5 38/41/5 21/8/5 4/7/5
f 8/15/5 23/40/5 38/41/5 13/16/5
f 16/32/2 1/28/2 15/10/2 39/9/2
f 22/12/2 6/11/2 11/6/2 40/5/2
f 26/14/1 41/1/1 19/4/1 8/15/1
f 9/19/1 29/24/1 41/1/1 26/14/1
f 29/24/1 7/23/1 12/2/1 41/1/1
